<svg width="224" height="200" viewBox="0 0 224 200" fill="none" xmlns="http://www.w3.org/2000/svg">
<path d="M223.15 188.42L167.15 76.42C166.485 75.0914 165.464 73.974 164.2 73.1931C162.937 72.4122 161.481 71.9985 159.995 71.9985C158.509 71.9985 157.053 72.4122 155.79 73.1931C154.526 73.974 153.505 75.0914 152.84 76.42L131.13 119.85C114.113 118.893 97.74 113.015 84 102.93C100.121 85.7146 109.889 63.5161 111.69 40H136C138.122 40 140.157 39.1571 141.657 37.6569C143.157 36.1566 144 34.1217 144 32C144 29.8783 143.157 27.8434 141.657 26.3431C140.157 24.8429 138.122 24 136 24H80V8C80 5.87827 79.1571 3.84344 77.6569 2.34315C76.1566 0.842854 74.1217 0 72 0C69.8783 0 67.8434 0.842854 66.3431 2.34315C64.8429 3.84344 64 5.87827 64 8V24H8C5.87827 24 3.84344 24.8429 2.34315 26.3431C0.842854 27.8434 0 29.8783 0 32C0 34.1217 0.842854 36.1566 2.34315 37.6569C3.84344 39.1571 5.87827 40 8 40H95.63C93.8482 59.6065 85.5256 78.0444 72 92.35C63.5707 83.4574 57.0982 72.8971 53 61.35C52.6629 60.3426 52.1286 59.4124 51.4282 58.6137C50.7277 57.8149 49.8752 57.1637 48.9204 56.698C47.9656 56.2323 46.9276 55.9615 45.867 55.9012C44.8064 55.841 43.7444 55.9926 42.743 56.3472C41.7416 56.7018 40.8208 57.2523 40.0345 57.9666C39.2481 58.6809 38.6119 59.5446 38.1629 60.5074C37.714 61.4702 37.4613 62.5127 37.4196 63.5743C37.3778 64.6358 37.548 65.6949 37.92 66.69C42.6919 80.189 50.21 92.5524 60 103C44.9276 114.076 26.7043 120.033 8 120C5.87827 120 3.84344 120.843 2.34315 122.343C0.842854 123.843 0 125.878 0 128C0 130.122 0.842854 132.157 2.34315 133.657C3.84344 135.157 5.87827 136 8 136C31.2059 136.026 53.7466 128.249 72 113.92C86.8963 125.558 104.678 132.924 123.44 135.23L96.84 188.42C96.3699 189.36 96.0894 190.383 96.0146 191.431C95.9399 192.479 96.0722 193.531 96.4042 194.528C97.0746 196.541 98.5174 198.206 100.415 199.155C102.313 200.104 104.51 200.261 106.523 199.591C108.536 198.92 110.201 197.478 111.15 195.58L124.94 168H195.05L208.84 195.58C209.505 196.909 210.527 198.027 211.792 198.807C213.057 199.588 214.514 200.001 216 200C217.364 199.999 218.704 199.65 219.895 198.986C221.085 198.321 222.086 197.363 222.803 196.203C223.519 195.043 223.927 193.719 223.988 192.357C224.049 190.994 223.76 189.639 223.15 188.42ZM132.94 152L160 97.89L187.05 152H132.94Z" fill="black"/>
</svg>
