<svg width="192" height="192" viewBox="0 0 192 192" fill="none" xmlns="http://www.w3.org/2000/svg">
<path d="M128 97.89L143.06 128H112.94L119.3 115.3L128 97.89ZM192 16V176C192 180.243 190.314 184.313 187.314 187.314C184.313 190.314 180.243 192 176 192H16C11.7565 192 7.68687 190.314 4.68629 187.314C1.68571 184.313 0 180.243 0 176V16C0 11.7565 1.68571 7.68687 4.68629 4.68629C7.68687 1.68571 11.7565 0 16 0H176C180.243 0 184.313 1.68571 187.314 4.68629C190.314 7.68687 192 11.7565 192 16ZM175.16 156.42L135.16 76.42C134.497 75.0887 133.475 73.9688 132.21 73.186C130.945 72.4032 129.487 71.9885 128 71.9885C126.513 71.9885 125.055 72.4032 123.79 73.186C122.525 73.9688 121.503 75.0887 120.84 76.42L107.66 102.8C99.1818 101.14 91.1415 97.7343 84.05 92.8C95.1039 80.2866 101.943 64.6141 103.6 48H120C122.122 48 124.157 47.1571 125.657 45.6569C127.157 44.1566 128 42.1217 128 40C128 37.8783 127.157 35.8434 125.657 34.3431C124.157 32.8429 122.122 32 120 32H80V24C80 21.8783 79.1571 19.8434 77.6569 18.3431C76.1566 16.8429 74.1217 16 72 16C69.8783 16 67.8434 16.8429 66.3431 18.3431C64.8429 19.8434 64 21.8783 64 24V32H24C21.8783 32 19.8434 32.8429 18.3431 34.3431C16.8429 35.8434 16 37.8783 16 40C16 42.1217 16.8429 44.1566 18.3431 45.6569C19.8434 47.1571 21.8783 48 24 48H87.48C85.8929 60.6227 80.5643 72.4816 72.18 82.05C68.6286 77.9031 65.6055 73.3315 63.18 68.44C62.1975 66.6078 60.5402 65.2301 58.5594 64.5986C56.5785 63.9672 54.4297 64.1318 52.5681 65.0574C50.7065 65.983 49.2783 67.597 48.5861 69.5574C47.894 71.5178 47.9922 73.6707 48.86 75.56C51.9224 81.7341 55.7527 87.4964 60.26 92.71C49.6052 100.078 36.9544 104.017 24 104C21.8783 104 19.8434 104.843 18.3431 106.343C16.8429 107.843 16 109.878 16 112C16 114.122 16.8429 116.157 18.3431 117.657C19.8434 119.157 21.8783 120 24 120C41.3673 120.018 58.2637 114.354 72.11 103.87C80.4876 110.274 90.0726 114.921 100.29 117.53L80.84 156.42C79.8905 158.319 79.7343 160.517 80.4057 162.531C81.0771 164.546 82.521 166.211 84.42 167.16C86.3189 168.109 88.5173 168.266 90.5314 167.594C92.5456 166.923 94.2105 165.479 95.16 163.58L104.94 144H151.06L160.84 163.58C161.31 164.52 161.961 165.359 162.755 166.048C163.549 166.736 164.471 167.262 165.469 167.594C166.466 167.927 167.519 168.06 168.567 167.985C169.616 167.91 170.64 167.63 171.58 167.16C172.52 166.69 173.359 166.039 174.048 165.245C174.736 164.451 175.262 163.529 175.594 162.531C175.927 161.534 176.06 160.481 175.985 159.433C175.91 158.384 175.63 157.36 175.16 156.42Z" fill="black"/>
</svg>
